HIERARCHY
ROOT Hips
{
	OFFSET -0.001795 -0.223333 0.028219
	CHANNELS 6 Xposition Yposition Zposition Zrotation Yrotation Xrotation 
	JOINT LeftUpLeg
	{
		OFFSET 0.069520 -0.091406 -0.006815
		CHANNELS 3 Zrotation Yrotation Xrotation
		JOINT LeftLeg
		{
			OFFSET 0.034277 -0.375199 -0.004496
			CHANNELS 3 Zrotation Yrotation Xrotation
			JOINT LeftFoot
			{
				OFFSET -0.013596 -0.397961 -0.043693
				CHANNELS 3 Zrotation Yrotation Xrotation
				JOINT LeftToe
				{
					OFFSET 0.026358 -0.055791 0.119288
					CHANNELS 3 Zrotation Yrotation Xrotation
					End Site
					{
						OFFSET 0.000000 0.000000 0.000000
					}
				}
			}
		}
	}
	JOINT RightUpLeg
	{
		OFFSET -0.067670 -0.090522 -0.004320
		CHANNELS 3 Zrotation Yrotation Xrotation
		JOINT RightLeg
		{
			OFFSET -0.038290 -0.382569 -0.008850
			CHANNELS 3 Zrotation Yrotation Xrotation
			JOINT RightFoot
			{
				OFFSET 0.015774 -0.398415 -0.042312
				CHANNELS 3 Zrotation Yrotation Xrotation
				JOINT RightToe
				{
					OFFSET -0.025372 -0.048144 0.123348
					CHANNELS 3 Zrotation Yrotation Xrotation
					End Site
					{
						OFFSET 0.000000 0.000000 0.000000
					}
				}
			}
		}
	}
	JOINT Spine
	{
		OFFSET -0.002533 0.108963 -0.026696
		CHANNELS 3 Zrotation Yrotation Xrotation
		JOINT Spine1
		{
			OFFSET 0.005487 0.135180 0.001092
			CHANNELS 3 Zrotation Yrotation Xrotation
			JOINT Spine2
			{
				OFFSET 0.001457 0.052922 0.025425
				CHANNELS 3 Zrotation Yrotation Xrotation
				JOINT Neck
				{
					OFFSET -0.002778 0.213870 -0.042857
					CHANNELS 3 Zrotation Yrotation Xrotation
					JOINT Head
					{
						OFFSET 0.005152 0.064970 0.051349
						CHANNELS 3 Zrotation Yrotation Xrotation
						End Site
						{
							OFFSET 0.000000 0.000000 0.000000
						}
					}
				}
				JOINT LeftShoulder
				{
					OFFSET 0.078845 0.121749 -0.034090
					CHANNELS 3 Zrotation Yrotation Xrotation
					JOINT LeftArm
					{
						OFFSET 0.090977 0.030469 -0.008868
						CHANNELS 3 Zrotation Yrotation Xrotation
						JOINT LeftForeArm
						{
							OFFSET 0.259612 -0.012772 -0.027456
							CHANNELS 3 Zrotation Yrotation Xrotation
							JOINT LeftHand
							{
								OFFSET 0.249234 0.008986 -0.001171
								CHANNELS 3 Zrotation Yrotation Xrotation
								End Site
								{
									OFFSET 0.000000 0.000000 0.000000
								}
							}
						}
					}
				}
				JOINT RightShoulder
				{
					OFFSET -0.081759 0.118833 -0.038615
					CHANNELS 3 Zrotation Yrotation Xrotation
					JOINT RightArm
					{
						OFFSET -0.096012 0.032551 -0.009143
						CHANNELS 3 Zrotation Yrotation Xrotation
						JOINT RightForeArm
						{
							OFFSET -0.253742 -0.013329 -0.021401
							CHANNELS 3 Zrotation Yrotation Xrotation
							JOINT RightHand
							{
								OFFSET -0.255298 0.007772 -0.005559
								CHANNELS 3 Zrotation Yrotation Xrotation
								End Site
								{
									OFFSET 0.000000 0.000000 0.000000
								}
							}
						}
					}
				}
			}
		}
	}
}
MOTION
Frames: 13
Frame Time: 0.050000
0.006246 0.958281 -0.018675 -1.846655 -0.582647 1.282507 6.052606 0.123523 5.468579 -2.182366 0.371205 -8.755374 -1.387961 3.780834 16.420415 0.000000 0.000000 0.000000 -2.866909 -0.415502 6.578001 3.440756 -0.437676 -8.641786 -2.382691 -10.776211 17.759757 0.000000 0.000000 0.000000 -3.929794 0.053243 -0.285338 5.934757 -1.048818 -21.328608 1.143519 6.254327 28.736576 8.862435 -2.515216 -26.909265 0.000000 0.000000 0.000000 -24.637430 3.398849 -5.499985 -51.389745 -3.632722 -6.616690 -18.647692 -21.719332 4.463453 0.000000 0.000000 0.000000 3.422175 11.570745 4.576097 24.369834 43.763662 3.976529 -115.468012 58.508254 -73.173966 0.000000 0.000000 0.000000 
0.006158 0.958839 -0.019075 -1.782756 -0.431884 1.249062 6.047317 0.111914 5.219281 -2.240385 0.370534 -8.652028 -1.434838 3.877286 16.873652 0.000000 0.000000 0.000000 -2.927142 -0.409740 6.539321 3.507253 -0.439473 -8.430770 -2.520348 -11.005277 17.887700 0.000000 0.000000 0.000000 -4.136772 0.053994 -0.187930 6.219210 -1.117239 -21.392290 1.021521 6.283596 28.957869 8.916565 -2.527755 -26.962722 0.000000 0.000000 0.000000 -24.666870 3.090439 -5.350175 -51.349629 -4.340844 -6.338716 -19.111764 -22.593032 4.743904 0.000000 0.000000 0.000000 3.526022 11.629173 4.621795 23.083523 43.481859 3.513333 -115.013467 55.621746 -69.227423 0.000000 0.000000 0.000000 
0.006050 0.959131 -0.019476 -1.719252 -0.146823 1.150639 6.130938 0.100664 5.170402 -2.291534 0.367033 -8.465924 -1.657131 3.576441 16.846388 0.000000 0.000000 0.000000 -2.984463 -0.425645 6.749438 3.607860 -0.447390 -8.524995 -2.738128 -11.367161 18.121232 0.000000 0.000000 0.000000 -4.335530 0.053814 -0.109818 6.375283 -1.175048 -21.156460 1.049651 6.249109 28.852242 8.931156 -2.500746 -27.046868 0.000000 0.000000 0.000000 -24.882780 2.852457 -5.300596 -51.199660 -5.093358 -5.987048 -19.114680 -23.506058 4.936328 0.000000 0.000000 0.000000 3.489352 11.705515 4.653775 21.726231 43.256232 3.081827 -113.118795 53.392522 -64.717885 0.000000 0.000000 0.000000 
0.005901 0.959640 -0.019901 -1.630119 0.277089 1.126722 6.101097 0.086019 4.952838 -2.280706 0.362007 -8.418523 -1.979832 3.356388 17.455749 0.000000 0.000000 0.000000 -2.967575 -0.436489 6.785783 3.519074 -0.450566 -8.576752 -2.921074 -11.639306 18.309130 0.000000 0.000000 0.000000 -4.499602 0.053717 -0.000664 6.722693 -1.276412 -21.003242 0.854689 6.500926 28.678604 9.334279 -2.658414 -27.004948 0.000000 0.000000 0.000000 -25.034991 2.390222 -5.235285 -51.205075 -5.532647 -5.739677 -19.055517 -24.096411 5.016586 0.000000 0.000000 0.000000 3.637288 11.935742 4.795341 19.816465 43.048028 2.529992 -110.464854 50.854343 -59.143692 0.000000 0.000000 0.000000 
0.005674 0.960054 -0.020448 -1.477608 0.808921 1.022355 6.175856 0.063870 4.705792 -2.329761 0.355317 -8.106117 -2.318344 2.937200 17.466233 0.000000 0.000000 0.000000 -3.014282 -0.472669 7.195850 3.436392 -0.458255 -8.943198 -3.056878 -11.799912 18.395094 0.000000 0.000000 0.000000 -4.710354 0.052898 0.226376 6.669860 -1.248649 -21.058448 1.042703 6.685153 28.651243 9.305956 -2.547245 -27.086025 0.000000 0.000000 0.000000 -25.217101 2.055829 -5.250476 -51.208635 -5.967733 -5.505096 -18.887295 -24.813172 5.102595 0.000000 0.000000 0.000000 3.300603 12.231413 4.883946 18.126765 43.195221 2.122209 -106.698088 48.557337 -53.098394 0.000000 0.000000 0.000000 
0.005395 0.960734 -0.021250 -1.439003 1.207305 0.960852 6.278291 0.040602 4.413157 -2.205330 0.346824 -8.079481 -2.880940 2.392597 18.117707 0.000000 0.000000 0.000000 -3.093319 -0.492264 7.445294 3.487127 -0.467527 -9.138546 -3.286700 -12.140536 18.519855 0.000000 0.000000 0.000000 -4.818814 0.052133 0.501190 6.483457 -1.197894 -20.980113 1.189255 7.234419 28.301798 9.618438 -2.544331 -27.342905 0.000000 0.000000 0.000000 -24.988904 1.618068 -5.232064 -51.354420 -6.401400 -5.232313 -17.891515 -24.787482 4.812856 0.000000 0.000000 0.000000 2.772808 12.940805 5.102541 15.839658 43.689128 1.647193 -100.858389 45.119721 -44.594138 0.000000 0.000000 0.000000 
0.005019 0.961365 -0.022360 -1.290027 1.926323 0.763650 6.157203 0.032050 4.281455 -1.830434 0.324185 -7.827222 -3.476333 1.547381 17.904319 0.000000 0.000000 0.000000 -3.194659 -0.524820 7.800032 3.624729 -0.485447 -9.508607 -3.713689 -12.785967 18.865025 0.000000 0.000000 0.000000 -5.113400 0.052117 0.966999 6.325254 -1.132332 -21.126646 1.434227 7.757787 28.160146 9.785441 -2.445372 -27.551118 0.000000 0.000000 0.000000 -25.014760 1.292652 -5.386571 -51.347606 -6.751585 -4.976650 -17.260543 -24.759109 4.600029 0.000000 0.000000 0.000000 1.726625 13.770900 5.256876 12.509642 44.651224 0.918352 -93.350183 41.208962 -35.575359 0.000000 0.000000 0.000000 
0.004558 0.962327 -0.023749 -1.089035 2.085930 0.659319 5.909833 0.049843 4.406332 -1.476714 0.315578 -8.108466 -4.014543 0.886110 18.197227 0.000000 0.000000 0.000000 -3.647355 -0.515284 8.166830 4.075395 -0.503920 -10.019909 -3.801014 -12.907231 18.843720 0.000000 0.000000 0.000000 -5.234940 0.052908 1.216950 6.384982 -1.133995 -21.282922 1.676179 9.119279 28.034184 10.312944 -2.484774 -27.682120 0.000000 0.000000 0.000000 -25.291856 0.368172 -5.417529 -51.270707 -6.682292 -4.822085 -16.282357 -24.103940 4.174512 0.000000 0.000000 0.000000 0.426562 15.275162 5.576856 7.748226 45.538495 -0.236749 -84.793654 36.400826 -26.656226 0.000000 0.000000 0.000000 
0.003942 0.962881 -0.025192 -0.913332 2.615702 0.388756 5.769830 0.051594 4.381301 -1.317815 0.306606 -8.100938 -4.638831 0.121658 18.382509 0.000000 0.000000 0.000000 -3.666823 -0.536891 8.307881 4.019437 -0.509229 -9.793038 -4.449668 -13.900049 18.939857 0.000000 0.000000 0.000000 -5.401755 0.053625 1.974014 5.787286 -0.967156 -21.241396 2.017452 10.376697 27.261216 10.851140 -2.529744 -27.625988 0.000000 0.000000 0.000000 -25.055885 0.006930 -5.725502 -50.969089 -6.825353 -4.510956 -15.506092 -23.138209 3.740539 0.000000 0.000000 0.000000 -1.177210 16.570687 5.706339 2.188788 47.216224 -1.680347 -74.672046 30.281641 -17.876926 0.000000 0.000000 0.000000 
0.003034 0.963691 -0.026680 -0.768575 2.314804 0.298885 5.413239 0.089435 4.624107 -0.848751 0.300562 -8.419680 -5.135221 -0.810323 18.046475 0.000000 0.000000 0.000000 -3.880452 -0.534751 8.628631 4.087293 -0.508899 -10.157905 -4.675567 -14.296069 18.833163 0.000000 0.000000 0.000000 -5.064544 0.046024 2.306191 5.545214 -0.883977 -21.563661 2.077059 12.576014 27.235408 12.149805 -2.919842 -27.792424 0.000000 0.000000 0.000000 -24.891319 -0.956224 -5.839200 -50.567900 -6.525062 -4.382505 -14.605198 -21.723431 3.233657 0.000000 0.000000 0.000000 -3.476059 18.363979 5.739353 -4.311161 48.093590 -3.479038 -63.047311 23.369393 -10.420057 0.000000 0.000000 0.000000 
0.001792 0.964154 -0.028149 -0.600476 2.965833 0.177523 5.292003 0.084253 4.545474 -0.748531 0.292443 -8.366486 -5.721775 -1.604108 18.004857 0.000000 0.000000 0.000000 -3.599266 -0.583924 8.735734 3.863093 -0.511810 -9.987011 -5.531637 -15.606491 19.063779 0.000000 0.000000 0.000000 -5.235243 0.048101 2.797946 4.799383 -0.674893 -21.512303 2.368428 13.635031 26.508888 12.651350 -2.867311 -28.224718 0.000000 0.000000 0.000000 -24.093129 -1.113612 -6.063247 -51.068449 -6.638611 -4.233708 -13.115528 -20.219771 2.676784 0.000000 0.000000 0.000000 -6.603095 19.963789 5.385940 -9.669684 49.639620 -5.041819 -52.345256 15.146489 -4.661376 0.000000 0.000000 0.000000 
0.000271 0.965042 -0.029637 -0.415743 2.968543 0.086324 5.200078 0.100963 4.775658 -0.625243 0.300593 -8.855736 -6.279860 -2.280891 18.366260 0.000000 0.000000 0.000000 -3.463651 -0.605988 8.854394 3.669640 -0.510829 -10.329151 -6.010194 -16.385786 19.358704 0.000000 0.000000 0.000000 -5.028201 0.041894 3.494560 4.426460 -0.542503 -22.028636 2.230529 15.827012 26.503617 13.908419 -3.130477 -28.725778 0.000000 0.000000 0.000000 -23.730027 -2.001033 -6.235613 -50.384641 -6.797175 -3.884867 -11.625891 -18.142532 2.094789 0.000000 0.000000 0.000000 -8.815234 21.075157 5.010260 -15.481395 50.328192 -6.712996 -42.753632 8.157239 -1.330075 0.000000 0.000000 0.000000 
-0.001270 0.965400 -0.030956 -0.270630 3.520144 0.350952 5.123998 0.077378 4.384722 -0.815117 0.301867 -8.870186 -6.669550 -2.818708 18.286187 0.000000 0.000000 0.000000 -3.354957 -0.605808 8.606913 3.558544 -0.511596 -9.989952 -6.548494 -17.175589 19.601875 0.000000 0.000000 0.000000 -4.973640 0.042496 3.817567 3.569097 -0.293353 -22.241099 2.301315 16.789405 26.067286 14.308312 -3.046269 -29.127917 0.000000 0.000000 0.000000 -23.195421 -2.446015 -6.303529 -50.560485 -6.961728 -3.697914 -10.644601 -17.053168 1.783034 0.000000 0.000000 0.000000 -11.362911 21.814200 4.402573 -18.986355 50.622942 -7.576856 -34.864326 3.210589 0.228036 0.000000 0.000000 0.000000 
